<svg width="30" height="30" viewBox="0 0 30 30" fill="none" xmlns="http://www.w3.org/2000/svg">
<g clip-path="url(#clip0_695_753)">
<path d="M15 5V1.25L10 6.25L15 11.25V7.5C19.1375 7.5 22.5 10.8625 22.5 15C22.5 16.2625 22.1875 17.4625 21.625 18.5L23.45 20.325C24.425 18.7875 25 16.9625 25 15C25 9.475 20.525 5 15 5ZM15 22.5C10.8625 22.5 7.5 19.1375 7.5 15C7.5 13.7375 7.8125 12.5375 8.375 11.5L6.55 9.675C5.575 11.2125 5 13.0375 5 15C5 20.525 9.475 25 15 25V28.75L20 23.75L15 18.75V22.5Z" fill="white"/>
</g>
<defs>
<clipPath id="clip0_695_753">
<rect width="30" height="30" fill="white"/>
</clipPath>
</defs>
</svg>
