<svg width="27" height="38" viewBox="0 0 27 38" fill="none" xmlns="http://www.w3.org/2000/svg">
<path d="M13.5 0.75C6.24375 0.75 0.375 6.61875 0.375 13.875C0.375 21.6938 8.6625 32.475 12.075 36.5813C12.825 37.4813 14.1938 37.4813 14.9438 36.5813C18.3375 32.475 26.625 21.6938 26.625 13.875C26.625 6.61875 20.7563 0.75 13.5 0.75ZM13.5 18.5625C10.9125 18.5625 8.8125 16.4625 8.8125 13.875C8.8125 11.2875 10.9125 9.1875 13.5 9.1875C16.0875 9.1875 18.1875 11.2875 18.1875 13.875C18.1875 16.4625 16.0875 18.5625 13.5 18.5625Z" fill="#BCBCBC"/>
</svg>
