<svg width="90" height="31" fill="none" xmlns="http://www.w3.org/2000/svg"><path d="M74.426 0a15.647 15.647 0 0 0-9.05 2.874 15.487 15.487 0 0 0-5.687 7.562 15.485 15.485 0 0 0-5.24-7.194 15.664 15.664 0 0 0-17.081-1.216 15.526 15.526 0 0 0-6.22 6.378V.081h-1.736v14.937c-.005.162-.008.325-.008.483v.423a13.71 13.71 0 0 1-4.297 9.494 13.888 13.888 0 0 1-9.761 3.78 13.881 13.881 0 0 1-9.63-4.098 13.703 13.703 0 0 1-3.98-9.63V.081H0v15.414a15.415 15.415 0 0 0 3.352 9.536 15.59 15.59 0 0 0 8.56 5.45 15.67 15.67 0 0 0 10.12-.956 15.536 15.536 0 0 0 7.372-6.955v8.315h1.736V15.951c.005-.152.008-.304.008-.456v-.45a13.709 13.709 0 0 1 4.28-9.527A13.888 13.888 0 0 1 45.21 1.72c3.635.06 7.101 1.539 9.648 4.118a13.703 13.703 0 0 1 3.96 9.663v15.384h1.735v-8.42a15.514 15.514 0 0 0 5.743 6.151 15.652 15.652 0 0 0 8.13 2.27C83.028 30.885 90 23.97 90 15.442 90 6.914 83.028 0 74.426 0Zm0 29.164c-7.642 0-13.838-6.143-13.838-13.721 0-7.579 6.196-13.722 13.838-13.722 7.642 0 13.842 6.143 13.842 13.722 0 7.578-6.2 13.72-13.842 13.72Z" fill="#FED132"/><path d="M31.856 27.845V0h-6.093v3.072h3.046v24.773h-2.15v3.071h7.348v-3.07h-2.15Z" fill="#fff"/></svg>