<svg width="18" height="18" fill="none" xmlns="http://www.w3.org/2000/svg"><path d="M9 11.25a2.25 2.25 0 1 0 0-4.5 2.25 2.25 0 0 0 0 4.5Z" fill="#000"/><path d="M13.88 4.963c-1.537-1.054-3.182-1.588-4.888-1.588-1.536 0-3.034.457-4.45 1.353-1.43.905-2.83 2.55-3.98 4.272.93 1.547 2.2 3.137 3.523 4.05 1.518 1.045 3.169 1.575 4.907 1.575 1.722 0 3.37-.53 4.897-1.575 1.345-.921 2.624-2.51 3.549-4.05-.928-1.527-2.212-3.113-3.558-4.037ZM9 12.375a3.375 3.375 0 1 1 0-6.75 3.375 3.375 0 0 1 0 6.75Z" fill="#000"/></svg>