<svg width="48" height="47" fill="none" xmlns="http://www.w3.org/2000/svg"><path d="M24.5 9.75a16.03 16.03 0 0 1 15.06 21.54l3.48 3.49A20.63 20.63 0 0 0 15.52 7.26L19 10.73c1.72-.62 3.57-.99 5.5-.99Zm22.92-.64L36.87.26l-2.95 3.5 10.54 8.85 2.96-3.5ZM3.69 1.25.8 4.18l3.04 3.05-2.54 2.13 3.25 3.25 2.54-2.15 1.84 1.83A20.61 20.61 0 0 0 38 41.37l5.04 5.05 2.91-2.91L5.91 3.49 3.7 1.25Zm31.05 36.9a16.05 16.05 0 0 1-22.6-22.6l22.6 22.6ZM15.38 3.51 12.12.26 10.15 1.9l3.26 3.25 1.97-1.62Z" fill="#BCBCBC"/></svg>