<svg width="24" height="24" viewBox="0 0 24 24" fill="none" xmlns="http://www.w3.org/2000/svg">
<g clip-path="url(#clip0_11_1315)">
<path d="M13.21 7.70994C12.82 7.31994 12.19 7.31994 11.8 7.70994L8.21 11.2999C7.82 11.6899 7.82 12.3199 8.21 12.7099L11.8 16.2999C12.19 16.6899 12.82 16.6899 13.21 16.2999C13.6 15.9099 13.6 15.2799 13.21 14.8899L11.33 12.9999L20 12.9999C20.55 12.9999 21 12.5499 21 11.9999C21 11.4499 20.55 10.9999 20 10.9999L11.33 10.9999L13.21 9.11994C13.6 8.72994 13.59 8.08994 13.21 7.70994ZM5 20.9999L19 20.9999C20.11 20.9999 21 20.0999 21 18.9999L21 15.9999C21 15.4499 20.55 14.9999 20 14.9999C19.45 14.9999 19 15.4499 19 15.9999L19 17.9999C19 18.5499 18.55 18.9999 18 18.9999L6 18.9999C5.45 18.9999 5 18.5499 5 17.9999L5 5.99994C5 5.44994 5.45 4.99994 6 4.99994L18 4.99994C18.55 4.99994 19 5.44994 19 5.99994L19 7.99994C19 8.54994 19.45 8.99994 20 8.99994C20.55 8.99994 21 8.54994 21 7.99994L21 4.99994C21 3.89994 20.1 2.99994 19 2.99994L5 2.99994C3.9 2.99994 3 3.89994 3 4.99994L3 18.9999C3 20.0999 3.9 20.9999 5 20.9999Z" fill="white"/>
</g>
<defs>
<clipPath id="clip0_11_1315">
<rect width="24" height="24" fill="white" transform="matrix(-1 0 0 -1 24 23.9999)"/>
</clipPath>
</defs>
</svg>
