<svg width="35" height="35" viewBox="0 0 35 35" fill="none" xmlns="http://www.w3.org/2000/svg">
<path d="M31.0562 23.6123L26.2937 23.0686C25.15 22.9373 24.025 23.3311 23.2187 24.1373L19.7687 27.5873C14.4625 24.8873 10.1125 20.5561 7.41245 15.2311L10.8812 11.7623C11.6875 10.9561 12.0812 9.83105 11.95 8.6873L11.4062 3.9623C11.1812 2.06855 9.58746 0.643555 7.67496 0.643555H4.43121C2.31245 0.643555 0.549954 2.40605 0.681204 4.5248C1.67495 20.5373 14.4812 33.3248 30.475 34.3186C32.5937 34.4498 34.3562 32.6873 34.3562 30.5686V27.3248C34.375 25.4311 32.95 23.8373 31.0562 23.6123Z" fill="#BCBCBC"/>
</svg>
