<svg width="47" height="47" fill="none" xmlns="http://www.w3.org/2000/svg"><path d="M46.417 9.109 35.875.263l-2.956 3.506 10.541 8.846 2.957-3.506Zm-32.359-5.34L11.125.263.583 9.086l2.957 3.506 10.518-8.823ZM23.5 5.167c-11.39 0-20.625 9.235-20.625 20.625S12.088 46.417 23.5 46.417c11.39 0 20.625-9.236 20.625-20.625 0-11.39-9.235-20.625-20.625-20.625Zm0 36.666c-8.869 0-16.042-7.172-16.042-16.041S14.631 9.75 23.5 9.75c8.869 0 16.042 7.173 16.042 16.042 0 8.869-7.173 16.041-16.042 16.041Zm-3.346-12.535-4.881-4.881-2.43 2.429 7.288 7.287 13.75-13.75-2.429-2.429-11.298 11.344Z" fill="#BCBCBC"/></svg>